<svg version="1.1" id="Layer_1" xmlns="http://www.w3.org/2000/svg" xmlns:xlink="http://www.w3.org/1999/xlink" x="0px" y="0px"
	 width="100%" viewBox="0 0 1634 1507" enable-background="new 0 0 1634 1507" xml:space="preserve">
<path fill="#FEFFFF" opacity="1.000000" stroke="none" 
	d="
M782.000000,1508.000000 
	C521.750427,1508.000000 261.500885,1508.000000 1.000000,1508.000000 
	C1.000000,1341.970703 1.000000,1175.941284 1.244719,1009.429077 
	C1.489437,1008.946350 1.981670,1008.957886 1.993126,1009.394287 
	C3.984696,1026.992676 5.495459,1044.224243 8.032887,1061.303345 
	C15.659269,1112.635376 38.800323,1155.983154 75.555901,1192.530396 
	C102.229263,1219.052612 131.371719,1242.516235 161.934555,1264.222168 
	C187.706482,1282.525635 213.531937,1300.888672 240.436737,1317.431396 
	C284.536591,1344.546509 329.745361,1369.852051 374.052856,1396.637939 
	C394.611847,1409.066772 415.838440,1414.910767 439.698822,1410.378052 
	C468.346802,1404.936035 491.780914,1390.606689 510.571198,1368.703735 
	C523.450012,1353.691650 531.991394,1336.474243 531.960510,1316.176636 
	C531.806335,1214.874634 531.538452,1113.572876 531.188538,1012.271423 
	C531.106323,988.456177 530.550720,964.642578 530.214111,940.828186 
	C529.886841,917.678284 529.470825,894.529175 529.254211,871.378235 
	C528.858154,829.065063 528.521606,786.751038 528.274475,744.436707 
	C528.118774,717.775757 528.482971,691.107910 527.991089,664.454590 
	C527.762024,652.039734 527.050842,639.470825 524.833801,627.285461 
	C517.409363,586.479004 500.853119,549.573303 475.405518,516.718201 
	C457.639618,493.780762 435.741211,474.970276 414.115997,455.987946 
	C374.894257,421.559540 333.158051,390.385681 288.960632,362.596771 
	C246.479111,335.886719 203.005951,310.994934 155.588928,293.894714 
	C131.308243,285.138275 106.453995,279.519043 80.300110,282.843048 
	C51.353138,286.522003 30.779421,301.729950 17.932102,327.673920 
	C8.657331,346.403473 5.336954,366.478088 5.164170,387.156555 
	C4.779979,433.135590 4.527092,479.115723 4.216902,525.095398 
	C3.875243,575.739868 3.514911,626.384216 3.191871,677.028870 
	C3.047328,699.689575 2.973893,722.350708 2.608488,745.320068 
	C2.507935,749.414368 2.667081,753.200256 2.867434,757.453857 
	C2.779335,776.935486 2.650028,795.949402 2.267043,814.960815 
	C1.675576,814.972107 1.337787,814.986023 0.999999,815.000000 
	C1.000000,543.727234 1.000000,272.454468 1.000000,1.000000 
	C344.362701,1.000000 687.725403,1.000000 1031.305420,1.355205 
	C1019.735291,2.575464 1007.845825,2.738529 996.179016,4.433717 
	C957.011780,10.124735 917.937378,16.451336 878.801514,22.362961 
	C845.584290,27.380554 812.333740,32.177353 779.093323,37.040730 
	C746.010071,41.881115 712.920227,46.676865 679.834900,51.503059 
	C648.892395,56.016682 617.952576,60.549255 587.010376,65.064789 
	C556.401855,69.531609 525.788818,73.967072 495.183289,78.454002 
	C464.579987,82.940613 433.986969,87.497375 403.383057,91.979958 
	C374.587006,96.197739 345.796021,100.454094 316.978058,104.517807 
	C288.817749,108.488792 260.631195,112.275215 232.446762,116.072884 
	C208.026810,119.363327 183.772491,123.403084 160.560135,132.058090 
	C147.851501,136.796661 135.690460,142.576965 126.070969,152.530289 
	C115.098961,163.883041 113.045525,177.541168 120.348572,191.517288 
	C126.755379,203.778229 136.169769,213.511856 147.886703,220.556473 
	C244.312408,278.530945 340.864563,336.295074 437.366119,394.143463 
	C466.742859,411.753510 497.011047,427.192017 531.144104,433.467407 
	C550.226501,436.975739 569.592224,439.685486 588.751831,436.637665 
	C633.238159,429.561035 677.527222,421.246582 721.900452,413.457397 
	C761.038940,406.587158 800.186157,399.766724 839.323853,392.891693 
	C883.866943,385.067139 928.402405,377.198730 972.943665,369.363770 
	C1013.388184,362.249420 1053.833374,355.138580 1094.283325,348.055237 
	C1139.321533,340.168457 1184.385132,332.424622 1229.401123,324.413666 
	C1270.637573,317.075256 1311.928223,309.979248 1352.999878,301.796936 
	C1381.819092,296.055603 1410.468140,289.261902 1438.867554,281.713196 
	C1449.572754,278.867706 1459.904541,273.456116 1469.414185,267.602295 
	C1478.828491,261.807251 1479.958252,252.953690 1474.652222,243.200211 
	C1473.544189,241.163666 1472.370361,239.041443 1470.762207,237.419342 
	C1463.275513,229.868317 1456.345093,221.516708 1447.903687,215.206528 
	C1418.970581,193.578537 1389.461914,172.721786 1360.219238,151.506683 
	C1307.221802,113.057808 1252.891357,76.682114 1195.207642,45.542465 
	C1154.989380,23.831314 1113.351929,6.265351 1067.078857,2.536156 
	C1062.043945,2.130392 1057.025879,1.517060 1052.000000,1.000002 
	C1246.305786,1.000000 1440.611450,1.000000 1634.958618,1.000000 
	C1634.958618,503.234497 1634.958618,1005.468994 1634.958618,1508.000000 
	C1363.637329,1508.000000 1092.274658,1508.000000 820.350586,1507.750122 
	C819.859741,1507.333740 819.930115,1507.167236 820.405884,1506.987549 
	C822.607178,1506.634399 824.404297,1506.301636 826.198425,1505.953369 
	C865.038574,1498.413574 903.876648,1490.862427 942.718872,1483.333374 
	C989.896606,1474.188477 1037.079102,1465.067749 1084.257324,1455.925659 
	C1136.484985,1445.804810 1188.709595,1435.668335 1240.936890,1425.545166 
	C1291.864624,1415.673828 1342.791260,1405.796143 1393.723999,1395.950317 
	C1420.801270,1390.716064 1447.971191,1386.010864 1474.178345,1376.956909 
	C1537.887451,1354.947021 1582.150269,1313.478516 1603.632080,1248.856812 
	C1616.146484,1211.211426 1620.828979,1172.299316 1621.765015,1132.910278 
	C1623.103149,1076.605103 1623.777832,1020.284241 1624.732422,963.969971 
	C1625.729370,905.155090 1626.668335,846.339050 1627.732910,787.525391 
	C1628.664795,736.046448 1629.760620,684.570496 1630.737915,633.092346 
	C1631.515991,592.104858 1632.010864,551.124573 1626.994019,510.309967 
	C1623.737549,483.816437 1618.625122,457.754181 1608.816284,432.814240 
	C1591.238281,388.120392 1561.236816,356.699219 1513.552490,344.536469 
	C1495.092651,339.827881 1476.322754,337.019958 1457.229248,339.127563 
	C1446.993652,340.257385 1436.867310,342.372589 1426.689209,344.028290 
	C1388.933105,350.169922 1351.173706,356.291870 1313.419800,362.446838 
	C1275.506714,368.627838 1237.600586,374.850555 1199.687988,381.034180 
	C1163.906372,386.870239 1128.118652,392.669159 1092.336670,398.502899 
	C1054.579468,404.658661 1016.828735,410.853394 979.070007,416.999359 
	C943.289734,422.823242 907.371887,427.910309 871.756836,434.609314 
	C838.446838,440.874725 805.301208,448.199371 772.363342,456.209534 
	C735.271057,465.230042 699.122742,477.194305 665.878967,496.583008 
	C628.420044,518.430054 601.019409,548.808228 586.555054,590.145691 
	C576.816589,617.976868 573.585571,646.785583 573.586853,676.097717 
	C573.595581,881.924622 573.573730,1087.751587 573.575867,1293.578491 
	C573.576233,1325.488770 576.124512,1357.086792 585.033813,1387.931641 
	C599.721802,1438.782227 631.566772,1473.494263 681.831726,1490.746948 
	C714.251953,1501.874634 747.893433,1505.848999 782.075439,1507.266724 
	C782.126465,1507.670410 782.063232,1507.835205 782.000000,1508.000000 
z"/>
<path fill="#434969" opacity="1.000000" stroke="none" 
	d="
M1051.531616,1.000002 
	C1057.025879,1.517060 1062.043945,2.130392 1067.078857,2.536156 
	C1113.351929,6.265351 1154.989380,23.831314 1195.207642,45.542465 
	C1252.891357,76.682114 1307.221802,113.057808 1360.219238,151.506683 
	C1389.461914,172.721786 1418.970581,193.578537 1447.903687,215.206528 
	C1456.345093,221.516708 1463.275513,229.868317 1470.762207,237.419342 
	C1472.370361,239.041443 1473.544189,241.163666 1474.652222,243.200211 
	C1479.958252,252.953690 1478.828491,261.807251 1469.414185,267.602295 
	C1459.904541,273.456116 1449.572754,278.867706 1438.867554,281.713196 
	C1410.468140,289.261902 1381.819092,296.055603 1352.999878,301.796936 
	C1311.928223,309.979248 1270.637573,317.075256 1229.401123,324.413666 
	C1184.385132,332.424622 1139.321533,340.168457 1094.283325,348.055237 
	C1053.833374,355.138580 1013.388184,362.249420 972.943665,369.363770 
	C928.402405,377.198730 883.866943,385.067139 839.323853,392.891693 
	C800.186157,399.766724 761.038940,406.587158 721.900452,413.457397 
	C677.527222,421.246582 633.238159,429.561035 588.751831,436.637665 
	C569.592224,439.685486 550.226501,436.975739 531.144104,433.467407 
	C497.011047,427.192017 466.742859,411.753510 437.366119,394.143463 
	C340.864563,336.295074 244.312408,278.530945 147.886703,220.556473 
	C136.169769,213.511856 126.755379,203.778229 120.348572,191.517288 
	C113.045525,177.541168 115.098961,163.883041 126.070969,152.530289 
	C135.690460,142.576965 147.851501,136.796661 160.560135,132.058090 
	C183.772491,123.403084 208.026810,119.363327 232.446762,116.072884 
	C260.631195,112.275215 288.817749,108.488792 316.978058,104.517807 
	C345.796021,100.454094 374.587006,96.197739 403.383057,91.979958 
	C433.986969,87.497375 464.579987,82.940613 495.183289,78.454002 
	C525.788818,73.967072 556.401855,69.531609 587.010376,65.064789 
	C617.952576,60.549255 648.892395,56.016682 679.834900,51.503059 
	C712.920227,46.676865 746.010071,41.881115 779.093323,37.040730 
	C812.333740,32.177353 845.584290,27.380554 878.801514,22.362961 
	C917.937378,16.451336 957.011780,10.124735 996.179016,4.433717 
	C1007.845825,2.738529 1019.735291,2.575464 1031.761353,1.355205 
	C1038.354370,1.000000 1044.708862,1.000000 1051.531616,1.000002 
z"/>
<path fill="#D5F7FC" opacity="1.000000" stroke="none" 
	d="
M0.999999,815.468628 
	C1.337787,814.986023 1.675576,814.972107 2.402400,815.414368 
	C2.503986,852.572205 2.216537,889.273926 1.696741,925.978882 
	C1.464395,925.982117 1.000000,926.000000 1.000000,926.000000 
	C1.000000,889.312439 1.000000,852.624878 0.999999,815.468628 
z"/>
<path fill="#9DE3FB" opacity="1.000000" stroke="none" 
	d="
M1.000000,926.468628 
	C1.000000,926.000000 1.464395,925.982117 1.747096,926.447388 
	C2.013755,954.261108 1.997712,981.609497 1.981670,1008.957886 
	C1.981670,1008.957886 1.489437,1008.946350 1.244719,1008.973145 
	C1.000000,981.645752 1.000000,954.291565 1.000000,926.468628 
z"/>
<path fill="#8690AA" opacity="1.000000" stroke="none" 
	d="
M782.468628,1508.000000 
	C782.063232,1507.835205 782.126465,1507.670410 782.541626,1507.187256 
	C795.262451,1506.912964 807.631470,1506.956909 820.000427,1507.000732 
	C819.930115,1507.167236 819.859741,1507.333740 819.894653,1507.750122 
	C807.645752,1508.000000 795.291565,1508.000000 782.468628,1508.000000 
z"/>
<path fill="#496280" opacity="1.000000" stroke="none" 
	d="
M820.405884,1506.987549 
	C807.631470,1506.956909 795.262451,1506.912964 782.427368,1506.948486 
	C747.893433,1505.848999 714.251953,1501.874634 681.831726,1490.746948 
	C631.566772,1473.494263 599.721802,1438.782227 585.033813,1387.931641 
	C576.124512,1357.086792 573.576233,1325.488770 573.575867,1293.578491 
	C573.573730,1087.751587 573.595581,881.924622 573.586853,676.097717 
	C573.585571,646.785583 576.816589,617.976868 586.555054,590.145691 
	C601.019409,548.808228 628.420044,518.430054 665.878967,496.583008 
	C699.122742,477.194305 735.271057,465.230042 772.363342,456.209534 
	C805.301208,448.199371 838.446838,440.874725 871.756836,434.609314 
	C907.371887,427.910309 943.289734,422.823242 979.070007,416.999359 
	C1016.828735,410.853394 1054.579468,404.658661 1092.336670,398.502899 
	C1128.118652,392.669159 1163.906372,386.870239 1199.687988,381.034180 
	C1237.600586,374.850555 1275.506714,368.627838 1313.419800,362.446838 
	C1351.173706,356.291870 1388.933105,350.169922 1426.689209,344.028290 
	C1436.867310,342.372589 1446.993652,340.257385 1457.229248,339.127563 
	C1476.322754,337.019958 1495.092651,339.827881 1513.552490,344.536469 
	C1561.236816,356.699219 1591.238281,388.120392 1608.816284,432.814240 
	C1618.625122,457.754181 1623.737549,483.816437 1626.994019,510.309967 
	C1632.010864,551.124573 1631.515991,592.104858 1630.737915,633.092346 
	C1629.760620,684.570496 1628.664795,736.046448 1627.732910,787.525391 
	C1626.668335,846.339050 1625.729370,905.155090 1624.732422,963.969971 
	C1623.777832,1020.284241 1623.103149,1076.605103 1621.765015,1132.910278 
	C1620.828979,1172.299316 1616.146484,1211.211426 1603.632080,1248.856812 
	C1582.150269,1313.478516 1537.887451,1354.947021 1474.178345,1376.956909 
	C1447.971191,1386.010864 1420.801270,1390.716064 1393.723999,1395.950317 
	C1342.791260,1405.796143 1291.864624,1415.673828 1240.936890,1425.545166 
	C1188.709595,1435.668335 1136.484985,1445.804810 1084.257324,1455.925659 
	C1037.079102,1465.067749 989.896606,1474.188477 942.718872,1483.333374 
	C903.876648,1490.862427 865.038574,1498.413574 826.198425,1505.953369 
	C824.404297,1506.301636 822.607178,1506.634399 820.405884,1506.987549 
z"/>
<path fill="#5EBEE4" opacity="1.000000" stroke="none" 
	d="
M1.993126,1009.394287 
	C1.997712,981.609497 2.013755,954.261108 1.979443,926.444153 
	C2.216537,889.273926 2.503986,852.572205 2.656078,815.416992 
	C2.650028,795.949402 2.779335,776.935486 2.949628,757.001099 
	C2.949806,752.391052 2.908997,748.701355 2.868188,745.011658 
	C2.973893,722.350708 3.047328,699.689575 3.191871,677.028870 
	C3.514911,626.384216 3.875243,575.739868 4.216902,525.095398 
	C4.527092,479.115723 4.779979,433.135590 5.164170,387.156555 
	C5.336954,366.478088 8.657331,346.403473 17.932102,327.673920 
	C30.779421,301.729950 51.353138,286.522003 80.300110,282.843048 
	C106.453995,279.519043 131.308243,285.138275 155.588928,293.894714 
	C203.005951,310.994934 246.479111,335.886719 288.960632,362.596771 
	C333.158051,390.385681 374.894257,421.559540 414.115997,455.987946 
	C435.741211,474.970276 457.639618,493.780762 475.405518,516.718201 
	C500.853119,549.573303 517.409363,586.479004 524.833801,627.285461 
	C527.050842,639.470825 527.762024,652.039734 527.991089,664.454590 
	C528.482971,691.107910 528.118774,717.775757 528.274475,744.436707 
	C528.521606,786.751038 528.858154,829.065063 529.254211,871.378235 
	C529.470825,894.529175 529.886841,917.678284 530.214111,940.828186 
	C530.550720,964.642578 531.106323,988.456177 531.188538,1012.271423 
	C531.538452,1113.572876 531.806335,1214.874634 531.960510,1316.176636 
	C531.991394,1336.474243 523.450012,1353.691650 510.571198,1368.703735 
	C491.780914,1390.606689 468.346802,1404.936035 439.698822,1410.378052 
	C415.838440,1414.910767 394.611847,1409.066772 374.052856,1396.637939 
	C329.745361,1369.852051 284.536591,1344.546509 240.436737,1317.431396 
	C213.531937,1300.888672 187.706482,1282.525635 161.934555,1264.222168 
	C131.371719,1242.516235 102.229263,1219.052612 75.555901,1192.530396 
	C38.800323,1155.983154 15.659269,1112.635376 8.032887,1061.303345 
	C5.495459,1044.224243 3.984696,1026.992676 1.993126,1009.394287 
z"/>
<path fill="#D5F7FC" opacity="1.000000" stroke="none" 
	d="
M2.608488,745.320068 
	C2.908997,748.701355 2.949806,752.391052 2.908421,756.533447 
	C2.667081,753.200256 2.507935,749.414368 2.608488,745.320068 
z"/>
</svg>