<?xml version="1.0" encoding="UTF-8"?>
<!DOCTYPE svg PUBLIC "-//W3C//DTD SVG 1.1//EN" "http://www.w3.org/Graphics/SVG/1.1/DTD/svg11.dtd">
<!-- Creator: CorelDRAW -->
<svg xmlns="http://www.w3.org/2000/svg" xml:space="preserve" width="68.4388mm" height="68.4388mm" version="1.1" style="shape-rendering:geometricPrecision; text-rendering:geometricPrecision; image-rendering:optimizeQuality; fill-rule:evenodd; clip-rule:evenodd"
viewBox="0 0 6843.88 6843.88"
 xmlns:xlink="http://www.w3.org/1999/xlink"
 xmlns:xodm="http://www.corel.com/coreldraw/odm/2003">
 <defs>
  <style type="text/css">
   <![CDATA[
    .fil1 {fill:#FEFEFE}
    .fil2 {fill:#848688}
    .fil0 {fill:#C5295B}
   ]]>
  </style>
 </defs>
 <g id="Capa_x0020_1">
  <metadata id="CorelCorpID_0Corel-Layer"/>
  <path class="fil0" d="M1878.14 4816.17c768.93,0 1392.3,-623.35 1392.3,-1392.3 0,-768.94 -623.37,-1392.3 -1392.3,-1392.3 -768.95,0 -1392.3,623.36 -1392.3,1392.3 0,768.95 623.35,1392.3 1392.3,1392.3z"/>
  <polygon class="fil1" points="2217.18,3913.79 1928.81,3913.79 1928.81,2824.16 1821.91,2824.16 1821.91,4021.42 1928.81,4021.42 1928.81,4020.66 2217.18,4020.66 "/>
  <path class="fil1" d="M2936.81 3468.39l-717.95 0 0 -106.86 823.16 0c1.1,20.69 1.62,41.39 1.62,62.34 0,643.71 -521.82,1165.53 -1165.5,1165.53 -643.68,0 -1165.53,-521.82 -1165.53,-1165.53 0,-643.67 521.85,-1165.5 1165.53,-1165.5 16.99,0 33.9,0.36 50.71,1.1l-0.14 106.11c-16.77,-0.77 -33.62,-1.16 -50.57,-1.16 -585.13,0 -1059.49,474.34 -1059.49,1059.45 0,585.14 474.36,1059.49 1059.49,1059.49 569.17,0 1033.5,-448.8 1058.43,-1011.81l0.24 -3.16z"/>
  <path class="fil1" d="M1443.37 3146.7c90.44,0 163.75,-73.27 163.75,-163.72 0,-90.45 -73.31,-163.76 -163.75,-163.76 -90.44,0 -163.74,73.31 -163.74,163.76 0,90.45 73.3,163.72 163.74,163.72z"/>
  <polygon class="fil2" points="3961.8,4107.28 4956.63,4107.28 4956.63,3806.84 4327.13,3806.84 4327.13,2730.92 3961.8,2730.92 "/>
  <path class="fil2" d="M6158.72 2827.83c-114.12,-88.37 -260.92,-133.18 -436.21,-133.18 -208.14,0 -381.99,63.89 -502.85,184.72 -126.26,126.22 -193,312.21 -193,537.83 0,241.01 70.66,444.35 198.86,572.56 100.57,100.6 234.84,153.79 388.26,153.79 336.94,0 414.45,-201.98 414.45,-201.98l0 165.71 304.27 0 0 -777.35 -605.69 0 0 243.21 278.8 0c0,0 2.68,306.2 -285.01,306.2 -73.09,0 -138.25,-26.49 -188.38,-76.62 -78.03,-78.01 -119.27,-209.36 -119.27,-379.8 0,-282.25 112.18,-450.7 300,-450.7 117.33,0 205.49,72.04 228.11,181.22l387.52 0c-20.14,-158.64 -63.64,-241.33 -169.86,-325.61z"/>
 </g>
</svg>
