<?xml version="1.0" encoding="UTF-8" standalone="no"?>
<!-- Generator: Adobe Illustrator 19.0.0, SVG Export Plug-In . SVG Version: 6.00 Build 0)  -->

<svg
   xmlns:dc="http://purl.org/dc/elements/1.1/"
   xmlns:cc="http://creativecommons.org/ns#"
   xmlns:rdf="http://www.w3.org/1999/02/22-rdf-syntax-ns#"
   xmlns:svg="http://www.w3.org/2000/svg"
   xmlns="http://www.w3.org/2000/svg"
   xmlns:sodipodi="http://sodipodi.sourceforge.net/DTD/sodipodi-0.dtd"
   xmlns:inkscape="http://www.inkscape.org/namespaces/inkscape"
   version="1.1"
   id="Layer_1"
   x="0px"
   y="0px"
   viewBox="0 0 699.99999 700.00003"
   xml:space="preserve"
   sodipodi:docname="samsung-logo.svg"
   width="700"
   height="700"
   inkscape:version="0.92.0 r15299"
   inkscape:export-filename="C:\Users\suitedoalex\sites\samsung-logo-0.png"
   inkscape:export-xdpi="561.73712"
   inkscape:export-ydpi="561.73712"><metadata
     id="metadata11"><rdf:RDF><cc:Work
         rdf:about=""><dc:format>image/svg+xml</dc:format><dc:type
           rdf:resource="http://purl.org/dc/dcmitype/StillImage" /><dc:title></dc:title></cc:Work></rdf:RDF></metadata><defs
     id="defs9" /><sodipodi:namedview
     pagecolor="#ffffff"
     bordercolor="#666666"
     borderopacity="1"
     objecttolerance="10"
     gridtolerance="10"
     guidetolerance="10"
     inkscape:pageopacity="0"
     inkscape:pageshadow="2"
     inkscape:window-width="1920"
     inkscape:window-height="1017"
     id="namedview7"
     showgrid="false"
     inkscape:zoom="0.92299833"
     inkscape:cx="231.09869"
     inkscape:cy="125.81943"
     inkscape:window-x="-8"
     inkscape:window-y="-8"
     inkscape:window-maximized="1"
     inkscape:current-layer="Layer_1" /><style
     type="text/css"
     id="style2">
	.st0{fill:#034EA2;}
</style><path
     class="st0"
     d="m 72.422376,328.83111 c -0.441037,-1.76416 -0.330777,-3.5283 -0.110259,-4.52064 0.551297,-2.75647 2.425703,-5.73348 7.828406,-5.73348 5.071925,0 7.938665,3.08726 7.938665,7.82841 0,1.54363 0,5.29244 0,5.29244 h 21.390292 v -6.06425 c 0,-18.63381 -16.869664,-21.61081 -28.99818,-21.61081 -15.105514,-0.11026 -27.564808,4.96167 -29.880252,18.96458 -0.661555,3.85908 -0.771814,7.27712 0.220519,11.57723 3.748813,17.53122 34.290622,22.60314 38.700991,33.73932 0.882074,2.09493 0.551296,4.74115 0.220518,6.39504 -0.661555,2.86673 -2.646221,5.84374 -8.379701,5.84374 -5.402703,0 -8.600221,-3.08726 -8.600221,-7.82841 v -8.26944 H 49.598715 v 6.61555 c 0,19.18511 15.105515,24.91859 31.203363,24.91859 15.546557,0 28.226352,-5.29245 30.321292,-19.62614 0.99233,-7.38737 0.22051,-12.23878 -0.11027,-14.00293 -3.52829,-18.19277 -36.16502,-23.48522 -38.590724,-33.5188 z m 279.286644,0.22051 c -0.33078,-1.65389 -0.22053,-3.52829 -0.11027,-4.41037 0.66156,-2.75648 2.42571,-5.73348 7.82841,-5.73348 4.96166,0 7.82842,3.08726 7.82842,7.71815 0,1.54363 0,5.29245 0,5.29245 h 21.16977 v -5.95401 c 0,-18.52355 -16.53888,-21.39028 -28.55714,-21.39028 -15.10552,0 -27.45455,4.96166 -29.76999,18.85433 -0.5513,3.74881 -0.77182,7.16684 0.22051,11.46696 3.63856,17.20044 33.84958,22.27236 38.25995,33.29829 0.77182,2.09492 0.55129,4.74114 0.11026,6.28477 -0.66155,2.86674 -2.53596,5.73348 -8.26943,5.73348 -5.29245,0 -8.60024,-3.08726 -8.60024,-7.71815 v -8.26944 h -22.82366 v 6.50529 c 0,18.96459 14.885,24.69807 30.87259,24.69807 15.32603,0 28.00584,-5.29244 29.99052,-19.40562 0.99232,-7.38737 0.22052,-12.12851 -0.11026,-13.89266 -3.41803,-17.86201 -35.61373,-23.15444 -38.03944,-33.07778 z M 546.64735,375.80154 526.46991,306.669 h -31.86493 v 85.00987 h 21.05951 l -1.21284,-71.33773 21.72106,71.33773 h 30.54181 V 306.669 H 545.54475 Z M 141.55491,306.669 125.67758,392.56095 h 23.15445 l 12.01825,-79.49691 11.68748,79.49691 h 23.04417 L 179.70461,306.669 Z m 129.66486,0 -10.8054,67.14787 -10.8054,-67.14787 h -35.06244 l -1.87441,85.89195 h 21.50055 l 0.5513,-79.49691 14.77473,79.49691 h 21.72107 l 14.885,-79.49691 0.5513,79.49691 h 21.50055 L 306.28221,306.669 Z m 199.56921,0 h -21.72106 v 63.50932 c 0,1.10259 0,2.31544 -0.22052,3.30777 -0.44104,2.09493 -2.20518,6.28478 -8.26944,6.28478 -5.954,0 -7.71815,-4.07959 -8.15919,-6.28478 -0.22051,-0.88206 -0.22051,-2.20518 -0.22051,-3.30777 V 306.669 h -21.72108 v 61.52466 c 0,1.54362 0.11027,4.8514 0.22053,5.62321 1.54362,15.9876 14.11318,21.28003 29.88025,21.28003 15.76706,0 28.44688,-5.18218 29.99051,-21.28003 0.11026,-0.88207 0.33078,-4.07959 0.22051,-5.62321 z m 149.0705,37.70866 v 12.56955 h 8.82074 v 12.34904 c 0,1.10259 0,2.31544 -0.22053,3.30778 -0.33078,2.31543 -2.53595,6.28477 -8.82073,6.28477 -6.17451,0 -8.3797,-3.96934 -8.71048,-6.28477 -0.11025,-0.99234 -0.22051,-2.20519 -0.22051,-3.30778 v -39.2523 c 0,-1.43336 0.11026,-2.86673 0.44103,-4.07959 0.44104,-2.09492 2.31545,-6.17451 8.48996,-6.17451 6.61556,0 8.15917,4.30011 8.60023,6.17451 0.2205,1.21286 0.2205,3.30778 0.2205,3.30778 v 4.74115 h 21.61082 v -2.86674 c 0,0 0.11027,-2.977 -0.11027,-5.73348 -1.65389,-16.09785 -14.88499,-21.16977 -30.10076,-21.16977 -15.21578,0 -28.22636,5.18218 -30.10078,21.16977 -0.2205,1.43337 -0.44103,4.0796 -0.44103,5.73348 v 36.05477 c 0,1.54363 0,2.75648 0.33078,5.62322 1.43336,15.65681 14.99525,21.16977 30.21103,21.16977 15.32602,0 28.77765,-5.51296 30.21102,-21.16977 0.22052,-2.86674 0.33078,-4.07959 0.33078,-5.62322 v -22.82366 z"
     id="path4"
     style="fill:#1429a0;fill-opacity:1;stroke-width:1.10259235"
     inkscape:connector-curvature="0"
     inkscape:export-filename="C:\Users\suitedoalex\sites\samsung-logo-2.png"
     inkscape:export-xdpi="111.85038"
     inkscape:export-ydpi="111.85038" /><path
     class="st0"
     d="m 72.422375,800.17477 c -0.44103,-1.76416 -0.33077,-3.5283 -0.11026,-4.52064 0.5513,-2.75647 2.42571,-5.73348 7.82841,-5.73348 5.07193,0 7.93867,3.08726 7.93867,7.82841 0,1.54363 0,5.29244 0,5.29244 h 21.390295 v -6.06425 c 0,-18.63381 -16.869675,-21.61081 -28.998185,-21.61081 -15.10552,-0.11026 -27.56481,4.96167 -29.88025,18.96458 -0.66156,3.85908 -0.77182,7.27712 0.22051,11.57723 3.74882,17.53122 34.29063,22.60314 38.701,33.73932 0.88207,2.09493 0.55129,4.74115 0.22051,6.39504 -0.66155,2.86673 -2.64622,5.84374 -8.3797,5.84374 -5.4027,0 -8.60022,-3.08726 -8.60022,-7.82841 v -8.26944 h -23.15444 v 6.61555 c 0,19.18511 15.10552,24.91859 31.20337,24.91859 15.54655,0 28.226355,-5.29245 30.321295,-19.62614 0.99233,-7.38737 0.22051,-12.23878 -0.11028,-14.00293 -3.52829,-18.19277 -36.165015,-23.48522 -38.590725,-33.5188 z m 279.286645,0.22051 c -0.33078,-1.65389 -0.22054,-3.52829 -0.11027,-4.41037 0.66156,-2.75648 2.4257,-5.73348 7.8284,-5.73348 4.96167,0 7.82843,3.08726 7.82843,7.71815 0,1.54363 0,5.29245 0,5.29245 h 21.16976 v -5.95401 c 0,-18.52355 -16.53888,-21.39028 -28.55714,-21.39028 -15.10552,0 -27.45455,4.96166 -29.76999,18.85433 -0.5513,3.74881 -0.77182,7.16684 0.22051,11.46696 3.63856,17.20044 33.84958,22.27236 38.25995,33.29829 0.77182,2.09492 0.55129,4.74114 0.11026,6.28477 -0.66155,2.86674 -2.53596,5.73348 -8.26943,5.73348 -5.29245,0 -8.60024,-3.08726 -8.60024,-7.71815 v -8.26944 H 328.9956 v 6.50529 c 0,18.96459 14.885,24.69807 30.8726,24.69807 15.32603,0 28.00583,-5.29244 29.99052,-19.40562 0.99232,-7.38737 0.22052,-12.12851 -0.11026,-13.89266 -3.41803,-17.86201 -35.61372,-23.15444 -38.03944,-33.07778 z m 194.93832,46.74992 -20.17742,-69.13254 h -31.86495 v 85.00987 h 21.05952 l -1.21285,-71.33773 21.72106,71.33773 h 30.54182 v -85.00987 h -21.16977 z m -405.09243,-69.13254 -15.87733,85.89195 h 23.15445 l 12.01825,-79.49691 11.68747,79.49691 h 23.04417 l -15.87731,-85.89195 z m 129.66487,0 -10.80541,67.14787 -10.8054,-67.14787 h -35.06244 l -1.87442,85.89195 h 21.50055 l 0.5513,-79.49691 14.77474,79.49691 h 21.72107 l 14.885,-79.49691 0.5513,79.49691 h 21.50054 l -1.87441,-85.89195 z m 199.56921,0 h -21.72107 v 63.50932 c 0,1.10259 0,2.31544 -0.22051,3.30777 -0.44105,2.09493 -2.20519,6.28478 -8.26945,6.28478 -5.95399,0 -7.71814,-4.07959 -8.15918,-6.28478 -0.22051,-0.88206 -0.22051,-2.20518 -0.22051,-3.30777 v -63.50932 h -21.72109 v 61.52466 c 0,1.54362 0.11028,4.8514 0.22053,5.62321 1.54362,15.9876 14.11318,21.28003 29.88025,21.28003 15.76706,0 28.44688,-5.18218 29.99051,-21.28003 0.11026,-0.88207 0.33078,-4.07959 0.22051,-5.62321 z m 149.0705,37.70866 v 12.56955 h 8.82074 v 12.34904 c 0,1.10259 0,2.31544 -0.22054,3.30778 -0.33078,2.31543 -2.53594,6.28477 -8.82073,6.28477 -6.17452,0 -8.37969,-3.96934 -8.71047,-6.28477 -0.11025,-0.99234 -0.22051,-2.20519 -0.22051,-3.30778 v -39.2523 c 0,-1.43336 0.11026,-2.86673 0.44102,-4.07959 0.44105,-2.09492 2.31546,-6.17451 8.48996,-6.17451 6.61555,0 8.15917,4.30011 8.60023,6.17451 0.2205,1.21286 0.2205,3.30778 0.2205,3.30778 v 4.74115 h 21.61082 v -2.86674 c 0,0 0.11028,-2.977 -0.11027,-5.73348 -1.6539,-16.09785 -14.885,-21.16977 -30.10077,-21.16977 -15.21578,0 -28.22636,5.18218 -30.10078,21.16977 -0.2205,1.43337 -0.44102,4.0796 -0.44102,5.73348 v 36.05477 c 0,1.54363 0,2.75648 0.33079,5.62322 1.43335,15.65681 14.99525,21.16977 30.21103,21.16977 15.32602,0 28.77765,-5.51296 30.21102,-21.16977 0.22051,-2.86674 0.33078,-4.07959 0.33078,-5.62322 v -22.82366 z"
     id="path4-1"
     style="fill:#000000;fill-opacity:1;stroke-width:1.10259235"
     inkscape:connector-curvature="0"
     inkscape:export-filename="C:\Users\suitedoalex\sites\samsung-logo-3.png"
     inkscape:export-xdpi="654.4845"
     inkscape:export-ydpi="654.4845" /></svg>