<?xml version="1.0" standalone="no"?>
<!DOCTYPE svg PUBLIC "-//W3C//DTD SVG 20010904//EN"
 "http://www.w3.org/TR/2001/REC-SVG-20010904/DTD/svg10.dtd">
<svg version="1.0" xmlns="http://www.w3.org/2000/svg"
 width="383.000000pt" height="195.000000pt" viewBox="0 0 383.000000 195.000000"
 preserveAspectRatio="xMidYMid meet">

<g transform="translate(0.000000,195.000000) scale(0.100000,-0.100000)"
fill="#000000" stroke="none">
<path d="M675 1776 c-148 -24 -281 -46 -295 -51 -33 -10 -90 -64 -90 -85 0
-20 300 -216 352 -231 18 -5 58 -9 88 -9 65 0 672 93 713 109 28 11 34 30 17
61 -9 16 -153 120 -167 120 -3 0 -33 19 -67 43 -110 76 -136 87 -212 86 -38
-1 -190 -20 -339 -43z"/>
<path d="M1911 1663 c-36 -37 -46 -90 -38 -216 4 -86 6 -92 36 -119 17 -15 38
-28 46 -28 8 0 19 -9 25 -20 8 -16 21 -20 60 -20 43 0 50 3 50 20 0 16 -7 20
-30 20 -34 0 -42 25 -10 35 30 10 43 75 38 193 -4 94 -7 106 -30 129 -17 17
-40 27 -71 30 -41 5 -49 2 -76 -24z m79 -168 c0 -83 -4 -135 -10 -135 -6 0
-10 52 -10 135 0 83 4 135 10 135 6 0 10 -52 10 -135z"/>
<path d="M2140 1490 l0 -190 50 0 c28 0 50 4 50 9 0 5 14 4 30 -2 35 -13 58
-3 77 34 15 29 17 196 3 233 -11 30 -51 43 -86 27 -23 -10 -24 -10 -24 34 l0
45 -50 0 -50 0 0 -190z m120 -35 c0 -57 -4 -95 -10 -95 -6 0 -10 38 -10 95 0
57 4 95 10 95 6 0 10 -38 10 -95z"/>
<path d="M2400 1655 c0 -23 3 -25 50 -25 47 0 50 2 50 25 0 23 -3 25 -50 25
-47 0 -50 -2 -50 -25z"/>
<path d="M2400 1455 l0 -155 50 0 50 0 0 155 0 155 -50 0 -50 0 0 -155z"/>
<path d="M2584 1591 c-34 -21 -44 -51 -44 -135 0 -109 31 -156 102 -156 52 0
94 40 103 98 l7 42 -46 0 -46 0 0 -40 c0 -22 -4 -40 -10 -40 -6 0 -10 38 -10
95 0 57 4 95 10 95 6 0 10 -13 10 -30 0 -29 2 -30 45 -30 50 0 49 -1 34 52
-17 64 -92 87 -155 49z"/>
<path d="M1455 1453 c-16 -2 -165 -24 -330 -49 -273 -40 -304 -47 -339 -72
-22 -15 -49 -45 -60 -67 -20 -38 -21 -57 -24 -397 -3 -340 -2 -360 17 -403 16
-36 29 -50 64 -65 l43 -19 333 49 c182 28 345 57 361 65 40 21 76 71 90 125 7
30 10 157 8 390 -3 307 -5 349 -21 377 -25 47 -82 74 -142 66z m-632 -120
c-18 -7 -16 -33 2 -33 19 0 19 -14 -1 -34 -18 -18 -34 -13 -34 11 0 9 -6 13
-15 9 -8 -3 -15 -1 -15 4 0 12 50 50 64 49 7 0 6 -3 -1 -6z"/>
<path d="M540 1407 c0 -5 9 -20 20 -34 25 -32 25 -55 1 -77 -15 -14 -17 -23
-10 -54 5 -20 9 -180 9 -354 0 -350 0 -347 -63 -349 l-32 0 41 -21 c57 -28
107 -19 135 25 18 30 19 49 17 362 l-3 330 -27 55 c-25 52 -87 134 -88 117z"/>
<path d="M1915 1181 c-35 -15 -48 -40 -49 -96 0 -61 13 -82 81 -122 40 -23 43
-28 43 -69 0 -32 -4 -44 -15 -44 -11 0 -15 12 -15 45 l0 45 -51 0 -51 0 7 -47
c9 -65 39 -95 102 -100 65 -6 108 21 117 72 4 20 5 44 2 53 -2 9 -7 29 -10 43
-4 17 -24 38 -61 63 -49 32 -55 40 -55 71 0 19 5 35 10 35 6 0 10 -16 10 -35
l0 -35 51 0 51 0 -7 43 c-4 23 -15 50 -25 61 -21 21 -102 31 -135 17z"/>
<path d="M2390 990 l0 -190 50 0 50 0 0 190 0 190 -50 0 -50 0 0 -190z"/>
<path d="M2920 1155 c0 -23 3 -25 50 -25 47 0 50 2 50 25 0 23 -3 25 -50 25
-47 0 -50 -2 -50 -25z"/>
<path d="M2780 1125 c0 -14 -4 -25 -10 -25 -5 0 -10 -11 -10 -25 0 -14 4 -25
9 -25 5 0 11 -50 13 -111 4 -139 4 -139 140 -139 l98 0 0 156 0 157 -70 -6
c-69 -6 -70 -6 -70 19 0 22 -4 24 -50 24 -47 0 -50 -2 -50 -25z m140 -175 c0
-93 -1 -100 -20 -100 -19 0 -20 7 -20 100 0 93 1 100 20 100 19 0 20 -7 20
-100z"/>
<path d="M2178 1094 c-37 -19 -52 -78 -45 -174 5 -65 9 -78 32 -97 55 -48 156
-22 174 45 26 92 7 203 -39 227 -36 19 -87 19 -122 -1z m72 -139 c0 -57 -4
-95 -10 -95 -6 0 -10 38 -10 95 0 57 4 95 10 95 6 0 10 -38 10 -95z"/>
<path d="M2530 991 c0 -65 5 -132 11 -150 13 -36 47 -49 85 -32 15 6 24 7 24
1 0 -6 23 -10 50 -10 l50 0 0 155 0 155 -50 0 -50 0 0 -125 c0 -77 -4 -125
-10 -125 -6 0 -10 48 -10 125 l0 125 -50 0 -50 0 0 -119z"/>
<path d="M3098 1094 c-37 -19 -52 -78 -45 -174 5 -65 9 -78 32 -97 55 -48 156
-22 174 45 26 92 7 203 -39 227 -36 19 -87 19 -122 -1z m72 -139 c0 -57 -4
-95 -10 -95 -6 0 -10 38 -10 95 0 57 4 95 10 95 6 0 10 -38 10 -95z"/>
<path d="M3300 955 l0 -155 50 0 50 0 0 125 c0 77 4 125 10 125 6 0 10 -48 10
-125 l0 -125 50 0 50 0 0 119 c0 65 -5 132 -11 150 -13 36 -47 49 -85 32 -15
-6 -24 -7 -24 -1 0 6 -22 10 -50 10 l-50 0 0 -155z"/>
<path d="M3591 1097 c-57 -28 -46 -117 19 -157 31 -19 40 -31 40 -52 0 -16 -4
-28 -10 -28 -5 0 -10 11 -10 25 0 23 -4 25 -40 25 -44 0 -47 -7 -30 -57 27
-75 158 -71 181 6 15 49 -1 84 -51 116 -29 18 -40 32 -40 50 0 14 5 25 10 25
6 0 10 -11 10 -25 0 -23 4 -25 41 -25 41 0 41 0 35 33 -12 65 -90 97 -155 64z"/>
<path d="M1908 681 l-33 -29 0 -129 c0 -70 3 -140 8 -155 13 -47 91 -75 117
-43 9 11 16 13 24 5 5 -5 23 -10 38 -10 l28 0 0 100 0 100 -55 0 -56 0 7 -75
c5 -53 3 -75 -5 -75 -8 0 -11 42 -11 140 0 87 4 140 10 140 6 0 10 -20 10 -45
l0 -45 50 0 c56 0 58 5 40 72 -22 79 -111 104 -172 49z"/>
<path d="M2140 475 l0 -155 50 0 50 0 0 95 0 96 30 6 c29 5 30 8 30 59 0 58
-4 62 -38 38 -20 -14 -22 -14 -22 0 0 12 -11 16 -50 16 l-50 0 0 -155z"/>
<path d="M2368 614 c-37 -19 -52 -78 -45 -174 5 -65 9 -78 32 -97 55 -48 156
-22 174 45 26 92 7 203 -39 227 -36 19 -87 19 -122 -1z m72 -139 c0 -57 -4
-95 -10 -95 -6 0 -10 38 -10 95 0 57 4 95 10 95 6 0 10 -38 10 -95z"/>
<path d="M2580 511 c0 -65 5 -132 11 -150 13 -36 47 -49 85 -32 15 6 24 7 24
1 0 -6 23 -10 50 -10 l50 0 0 155 0 155 -50 0 -50 0 0 -125 c0 -77 -4 -125
-10 -125 -6 0 -10 48 -10 125 l0 125 -50 0 -50 0 0 -119z"/>
<path d="M2830 455 l0 -175 50 0 c49 0 50 1 50 30 0 28 2 29 24 19 38 -17 72
-4 85 32 12 35 15 167 5 219 -9 41 -43 59 -85 43 -16 -6 -29 -7 -29 -2 0 5
-22 9 -50 9 l-50 0 0 -175z m120 20 c0 -57 -4 -95 -10 -95 -6 0 -10 38 -10 95
0 57 4 95 10 95 6 0 10 -38 10 -95z"/>
</g>
</svg>
